<?xml version="1.0" encoding="utf-8"?>
<svg xmlns="http://www.w3.org/2000/svg" style="margin: auto; background: rgba(241, 242, 243, 0); display: block; shape-rendering: auto;" width="286" height="84" preserveAspectRatio="xMidYMid">
<style type="text/css">
  text {
    text-anchor: middle; font-size: 50px; opacity: 0;
  }
</style>
<g style="transform-origin: 143px 42px; transform: scale(0.625);">
<g transform="translate(143,42)">
  <g transform="translate(0,0)"><g class="path" style="transform: scale(1); transform-origin: -195.36px -6.59182px; animation: 1.26582s linear -0.742616s infinite normal forwards running beat-2f1ac639-3d3e-4c8f-9622-4fc523f0a585;"><path d="M28.88-1.52L34.56-1.52L28.72-18.80L12.88-18.80L6.72-1.52L12.72-1.52L12.72 0L0.48 0L0.48-1.52L4.24-1.52L24.64-56.48L31.20-56.48L51.36-1.52L55.04-1.52L55.04 0L28.88 0L28.88-1.52zM28.08-20.56L21.12-41.52L13.60-20.56L28.08-20.56" fill="#df1317" stroke="none" stroke-width="none" transform="translate(-223.1199951171875,21.648179762098522)" style="fill: rgb(223, 19, 23);"></path></g><g class="path" style="transform: scale(1); transform-origin: -140.8px -6.35182px; animation: 1.26582s linear -0.649789s infinite normal forwards running beat-2f1ac639-3d3e-4c8f-9622-4fc523f0a585;"><path d="M107.12-54.48L102.72-54.48L102.72 0L91.52 0L64.08-51.76L64.08-1.52L68.48-1.52L68.48 0L57.52 0L57.52-1.52L61.92-1.52L61.92-54.48L57.52-54.48L57.52-56L79.60-56L100.56-15.84L100.56-54.48L96.16-54.48L96.16-56L107.12-56L107.12-54.48" fill="#df1317" stroke="none" stroke-width="none" transform="translate(-223.1199951171875,21.648179762098522)" style="fill: rgb(246, 118, 3);"></path></g><g class="path" style="transform: scale(1); transform-origin: -99.8px -6.35182px; animation: 1.26582s linear -0.556962s infinite normal forwards running beat-2f1ac639-3d3e-4c8f-9622-4fc523f0a585;"><path d="M111.12-54.48L111.12-56L135.52-56L135.52-54.48L131.12-54.48L131.12-1.52L135.52-1.52L135.52 0L111.12 0L111.12-1.52L115.52-1.52L115.52-54.48L111.12-54.48" fill="#df1317" stroke="none" stroke-width="none" transform="translate(-223.1199951171875,21.648179762098522)" style="fill: rgb(128, 224, 19);"></path></g><g class="path" style="transform: scale(1); transform-origin: -52px -6.35182px; animation: 1.26582s linear -0.464135s infinite normal forwards running beat-2f1ac639-3d3e-4c8f-9622-4fc523f0a585;"><path d="M171.76-14.80L181.36-56L202.72-56L202.72-54.48L198.32-54.48L198.32-1.52L202.72-1.52L202.72 0L178.32 0L178.32-1.52L182.72-1.52L182.72-51.52L182.40-51.52L170.40 0L160.40 0L146.32-51.76L146-51.76L146-1.52L150.40-1.52L150.40 0L139.52 0L139.52-1.52L143.92-1.52L143.92-54.48L139.52-54.48L139.52-56L161.12-56L171.76-14.80" fill="#df1317" stroke="none" stroke-width="none" transform="translate(-223.1199951171875,21.648179762098522)" style="fill: rgb(3, 229, 229);"></path></g><g class="path" style="transform: scale(1); transform-origin: 9.36001px -6.59182px; animation: 1.26582s linear -0.371308s infinite normal forwards running beat-2f1ac639-3d3e-4c8f-9622-4fc523f0a585;"><path d="M233.60-1.52L239.28-1.52L233.44-18.80L217.60-18.80L211.44-1.52L217.44-1.52L217.44 0L205.20 0L205.20-1.52L208.96-1.52L229.36-56.48L235.92-56.48L256.08-1.52L259.76-1.52L259.76 0L233.60 0L233.60-1.52zM232.80-20.56L225.84-41.52L218.32-20.56L232.80-20.56" fill="#df1317" stroke="none" stroke-width="none" transform="translate(-223.1199951171875,21.648179762098522)" style="fill: rgb(14, 67, 79);"></path></g><g class="path" style="transform: scale(1); transform-origin: 56.4px -6.35182px; animation: 1.26582s linear -0.278481s infinite normal forwards running beat-2f1ac639-3d3e-4c8f-9622-4fc523f0a585;"><path d="M255.92-56L303.12-56L303.92-35.92L302.40-35.92L302.40-35.92Q298.88-46.56 296.16-50.44L296.16-50.44L296.16-50.44Q293.44-54.32 288.32-54.32L288.32-54.32L287.36-54.32L287.36-1.68L294.16-1.68L294.16 0L264.96 0L264.96-1.68L271.76-1.68L271.76-54.32L270.72-54.32L270.72-54.32Q265.60-54.32 262.80-50.28L262.80-50.28L262.80-50.28Q260-46.24 256.64-35.92L256.64-35.92L255.12-35.92L255.92-56" fill="#df1317" stroke="none" stroke-width="none" transform="translate(-223.1199951171875,21.648179762098522)" style="fill: rgb(7, 171, 204);"></path></g><g class="path" style="transform: scale(1); transform-origin: 97.96px -6.35182px; animation: 1.26582s linear -0.185654s infinite normal forwards running beat-2f1ac639-3d3e-4c8f-9622-4fc523f0a585;"><path d="M308.88-54.48L308.88-56L333.28-56L333.28-54.48L328.88-54.48L328.88-1.52L333.28-1.52L333.28 0L308.88 0L308.88-1.52L313.28-1.52L313.28-54.48L308.88-54.48" fill="#df1317" stroke="none" stroke-width="none" transform="translate(-223.1199951171875,21.648179762098522)" style="fill: rgb(10, 105, 170);"></path></g><g class="path" style="transform: scale(1); transform-origin: 142.08px -6.39182px; animation: 1.26582s linear -0.092827s infinite normal forwards running beat-2f1ac639-3d3e-4c8f-9622-4fc523f0a585;"><path d="M375.36-24.72L375.36-24.72L375.36-30.64L375.36-30.64Q375.36-45.28 373.92-49.12L373.92-49.12L373.92-49.12Q372.32-53.52 369.36-54.56L369.36-54.56L369.36-54.56Q367.68-55.20 365.28-55.20L365.28-55.20L365.28-55.20Q362.88-55.20 361.16-54.56L361.16-54.56L361.16-54.56Q359.44-53.92 358.32-52.32L358.32-52.32L358.32-52.32Q357.20-50.72 356.52-48.96L356.52-48.96L356.52-48.96Q355.84-47.20 355.44-44L355.44-44L355.44-44Q354.96-39.36 354.96-30.32L354.96-30.32L354.96-24.56L354.96-24.56Q354.96-14.80 355.72-10.68L355.72-10.68L355.72-10.68Q356.48-6.56 357.60-4.80L357.60-4.80L357.60-4.80Q360.08-0.88 365.28-0.88L365.28-0.88L365.28-0.88Q371.60-0.88 373.48-6.20L373.48-6.20L373.48-6.20Q375.36-11.52 375.36-24.72zM365.12 0.80L365.12 0.80L365.12 0.80Q351.76 0.80 345.16-6.44L345.16-6.44L345.16-6.44Q338.56-13.68 338.56-27.40L338.56-27.40L338.56-27.40Q338.56-41.12 345.64-49L345.64-49L345.64-49Q352.72-56.88 365.68-56.88L365.68-56.88L365.68-56.88Q378.64-56.88 385.24-49.40L385.24-49.40L385.24-49.40Q391.84-41.92 391.84-28.16L391.84-28.16L391.84-28.16Q391.84-14.40 385.16-6.80L385.16-6.80L385.16-6.80Q378.48 0.80 365.12 0.80" fill="#df1317" stroke="none" stroke-width="none" transform="translate(-223.1199951171875,21.648179762098522)" style="fill: rgb(25, 70, 69);"></path></g><g class="path" style="transform: scale(1); transform-origin: 198.8px -6.35182px; animation: 1.26582s linear 0s infinite normal forwards running beat-2f1ac639-3d3e-4c8f-9622-4fc523f0a585;"><path d="M446.72-54.48L442.32-54.48L442.32 0L431.12 0L403.68-51.76L403.68-1.52L408.08-1.52L408.08 0L397.12 0L397.12-1.52L401.52-1.52L401.52-54.48L397.12-54.48L397.12-56L419.20-56L440.16-15.84L440.16-54.48L435.76-54.48L435.76-56L446.72-56L446.72-54.48" fill="#df1317" stroke="none" stroke-width="none" transform="translate(-223.1199951171875,21.648179762098522)" style="fill: rgb(223, 19, 23);"></path></g></g>
</g>
</g>
<style id="beat-2f1ac639-3d3e-4c8f-9622-4fc523f0a585" data-anikit="">@keyframes beat-2f1ac639-3d3e-4c8f-9622-4fc523f0a585
{
  0% {
    animation-timing-function: cubic-bezier(0.1028,0.2484,0.1372,0.849);
    transform: scale(1);
  }
  34% {
    animation-timing-function: cubic-bezier(0.7116,0.2095,0.8159,0.6876);
    transform: scale(1.2);
  }
  68% {
    animation-timing-function: cubic-bezier(0.1475,0.2888,0.294,0.883);
    transform: scale(1.0268);
  }
  84% {
    animation-timing-function: cubic-bezier(0.8176,0.2193,0.867,0.6889);
    transform: scale(1.0932);
  }
  100% {
    transform: scale(1);
  }
}</style></svg>