<?xml version="1.0" encoding="utf-8"?>
<svg xmlns="http://www.w3.org/2000/svg" style="margin: auto; background: rgba(241, 242, 243, 0); display: block; shape-rendering: auto;" width="286" height="84" preserveAspectRatio="xMidYMid">
<style type="text/css">
  text {
    text-anchor: middle; font-size: 40px; opacity: 0;
  }
</style>
<g style="transform-origin: 143px 42px; transform: scale(0.8);">
<g transform="translate(143,42)">
  <g transform="translate(0,0)"><g class="path" style="transform: matrix(0.01, 0, 0, 0.01, 0, 0); transform-origin: -138.475px -3.921px; animation: 1s linear 0s 1 normal forwards running bounce-in-e0b91aa7-6f9a-4aec-b7e6-5af5fab8b7ae;"><path d="M20-34.55L20-34.55L20-34.55Q12.25-34.55 12.25-19.60L12.25-19.60L12.25-15.65L12.25-15.65Q12.25-8.55 14.30-4.53L14.30-4.53L14.30-4.53Q16.35-0.50 20.35-0.50L20.35-0.50L20.35-0.50Q25.85-0.50 30.45-11.20L30.45-11.20L31.35-11.20L31-0.05L30.45-0.05L30.45-0.05Q30.15-0.60 29.90-0.83L29.90-0.83L29.90-0.83Q29.65-1.05 29.18-1.05L29.18-1.05L29.18-1.05Q28.70-1.05 25.55-0.28L25.55-0.28L25.55-0.28Q22.40 0.50 19.15 0.50L19.15 0.50L19.15 0.50Q11 0.50 6.53-3.90L6.53-3.90L6.53-3.90Q2.05-8.30 2.05-17.13L2.05-17.13L2.05-17.13Q2.05-25.95 6.73-30.75L6.73-30.75L6.73-30.75Q11.40-35.55 19.30-35.55L19.30-35.55L19.30-35.55Q22.35-35.55 25.28-34.77L25.28-34.77L25.28-34.77Q28.20-34 28.70-34L28.70-34L28.70-34Q29.20-34 29.45-34.23L29.45-34.23L29.45-34.23Q29.70-34.45 30-35L30-35L30.55-35L30.95-24.15L30.05-24.15L30.05-24.15Q27.80-29.20 25.43-31.88L25.43-31.88L25.43-31.88Q23.05-34.55 20-34.55" fill="#3be8b0" stroke="none" stroke-width="none" transform="translate(-155.17501831054688,13.60400115966797)" style="fill: rgb(59, 232, 176);"></path></g><g class="path" style="transform: matrix(0.01, 0, 0, 0.01, 0, 0); transform-origin: -104.325px -4.046px; animation: 1s linear 0.066s 1 normal forwards running bounce-in-e0b91aa7-6f9a-4aec-b7e6-5af5fab8b7ae;"><path d="M51.55-0.95L55.10-0.95L51.45-11.75L41.55-11.75L37.70-0.95L41.45-0.95L41.45 0L33.80 0L33.80-0.95L36.15-0.95L48.90-35.30L53-35.30L65.60-0.95L67.90-0.95L67.90 0L51.55 0L51.55-0.95zM51.05-12.85L46.70-25.95L42-12.85L51.05-12.85" fill="#3be8b0" stroke="none" stroke-width="none" transform="translate(-155.17501831054688,13.60400115966797)" style="fill: rgb(26, 175, 208);"></path></g><g class="path" style="transform: matrix(0.01, 0, 0, 0.01, 0, 0); transform-origin: -74.925px -3.896px; animation: 1s linear 0.132s 1 normal forwards running bounce-in-e0b91aa7-6f9a-4aec-b7e6-5af5fab8b7ae;"><path d="M65.50-35L95-35L95.50-22.45L94.55-22.45L94.55-22.45Q92.35-29.10 90.65-31.53L90.65-31.53L90.65-31.53Q88.95-33.95 85.75-33.95L85.75-33.95L85.15-33.95L85.15-1.05L89.40-1.05L89.40 0L71.15 0L71.15-1.05L75.40-1.05L75.40-33.95L74.75-33.95L74.75-33.95Q71.55-33.95 69.80-31.43L69.80-31.43L69.80-31.43Q68.05-28.90 65.95-22.45L65.95-22.45L65-22.45L65.50-35" fill="#3be8b0" stroke="none" stroke-width="none" transform="translate(-155.17501831054688,13.60400115966797)" style="fill: rgb(106, 103, 206);"></path></g><g class="path" style="transform: matrix(0.01, 0, 0, 0.01, 0, 0); transform-origin: -42.85px -3.896px; animation: 1s linear 0.198s 1 normal forwards running bounce-in-e0b91aa7-6f9a-4aec-b7e6-5af5fab8b7ae;"><path d="M98.40-33.90L98.40-35L124.40-35L124.90-25.10L124-25.10L124-25.10Q121.90-30.15 119.60-32.02L119.60-32.02L119.60-32.02Q117.30-33.90 112.85-33.90L112.85-33.90L111.10-33.90L111.10-18.45L112.80-18.45L112.80-18.45Q115.15-18.45 116.75-20.23L116.75-20.23L116.75-20.23Q118.35-22 119-25L119-25L119.75-25L119.75-10.20L118.90-10.20L118.90-10.20Q118-13.95 116.47-15.55L116.47-15.55L116.47-15.55Q114.95-17.15 112.30-17.15L112.30-17.15L111.10-17.15L111.10-1.10L113-1.10L113-1.10Q117.60-1.10 120.82-3.85L120.82-3.85L120.82-3.85Q124.05-6.60 125.25-10.90L125.25-10.90L126.25-10.90L125.85 0L98.40 0L98.40-1.10L101.35-1.10L101.35-33.90L98.40-33.90" fill="#3be8b0" stroke="none" stroke-width="none" transform="translate(-155.17501831054688,13.60400115966797)" style="fill: rgb(255, 185, 0);"></path></g><g class="path" style="transform: matrix(0.01, 0, 0, 0.01, 0, 0); transform-origin: -9.60001px -3.921px; animation: 1s linear 0.264s 1 normal forwards running bounce-in-e0b91aa7-6f9a-4aec-b7e6-5af5fab8b7ae;"><path d="M146.80-0.50L146.80-0.50L146.80-0.50Q149.25-0.50 149.93-1.40L149.93-1.40L149.93-1.40Q150.60-2.30 150.60-4.45L150.60-4.45L150.60-14.15L147.40-14.15L147.40-15.25L161.80-15.25L161.80-14.15L159.85-14.15L159.85-0.05L159.10-0.05L159.10-0.05Q158.20-1.30 156.55-1.30L156.55-1.30L156.55-1.30Q155.85-1.30 152.38-0.40L152.38-0.40L152.38-0.40Q148.90 0.50 146.45 0.50L146.45 0.50L146.45 0.50Q138.30 0.50 133.83-3.90L133.83-3.90L133.83-3.90Q129.35-8.30 129.35-17.13L129.35-17.13L129.35-17.13Q129.35-25.95 134.03-30.75L134.03-30.75L134.03-30.75Q138.70-35.55 146.60-35.55L146.60-35.55L146.60-35.55Q149.65-35.55 152.73-34.77L152.73-34.77L152.73-34.77Q155.80-34 156.30-34L156.30-34L156.30-34Q156.80-34 157.05-34.23L157.05-34.23L157.05-34.23Q157.30-34.45 157.60-35L157.60-35L158.15-35L158.55-24.15L157.65-24.15L157.65-24.15Q155.20-29 152.73-31.78L152.73-31.78L152.73-31.78Q150.25-34.55 147.20-34.55L147.20-34.55L147.20-34.55Q139.55-34.55 139.55-19.60L139.55-19.60L139.55-15.65L139.55-15.65Q139.55-8.15 141.43-4.33L141.43-4.33L141.43-4.33Q143.30-0.50 146.80-0.50" fill="#3be8b0" stroke="none" stroke-width="none" transform="translate(-155.17501831054688,13.60400115966797)" style="fill: rgb(252, 99, 107);"></path></g><g class="path" style="transform: matrix(0.01, 0, 0, 0.01, 0, 0); transform-origin: 26.325px -3.921px; animation: 1s linear 0.33s 1 normal forwards running bounce-in-e0b91aa7-6f9a-4aec-b7e6-5af5fab8b7ae;"><path d="M187.85-15.45L187.85-15.45L187.85-19.15L187.85-19.15Q187.85-28.30 186.95-30.70L186.95-30.70L186.95-30.70Q185.95-33.45 184.10-34.10L184.10-34.10L184.10-34.10Q183.05-34.50 181.55-34.50L181.55-34.50L181.55-34.50Q180.05-34.50 178.98-34.10L178.98-34.10L178.98-34.10Q177.90-33.70 177.20-32.70L177.20-32.70L177.20-32.70Q176.50-31.70 176.08-30.60L176.08-30.60L176.08-30.60Q175.65-29.50 175.40-27.50L175.40-27.50L175.40-27.50Q175.10-24.60 175.10-18.95L175.10-18.95L175.10-15.35L175.10-15.35Q175.10-9.25 175.58-6.68L175.58-6.68L175.58-6.68Q176.05-4.10 176.75-3L176.75-3L176.75-3Q178.30-0.55 181.55-0.55L181.55-0.55L181.55-0.55Q185.50-0.55 186.68-3.88L186.68-3.88L186.68-3.88Q187.85-7.20 187.85-15.45zM181.45 0.50L181.45 0.50L181.45 0.50Q173.10 0.50 168.98-4.03L168.98-4.03L168.98-4.03Q164.85-8.55 164.85-17.13L164.85-17.13L164.85-17.13Q164.85-25.70 169.28-30.63L169.28-30.63L169.28-30.63Q173.70-35.55 181.80-35.55L181.80-35.55L181.80-35.55Q189.90-35.55 194.03-30.88L194.03-30.88L194.03-30.88Q198.15-26.20 198.15-17.60L198.15-17.60L198.15-17.60Q198.15-9 193.98-4.25L193.98-4.25L193.98-4.25Q189.80 0.50 181.45 0.50" fill="#3be8b0" stroke="none" stroke-width="none" transform="translate(-155.17501831054688,13.60400115966797)" style="fill: rgb(59, 232, 176);"></path></g><g class="path" style="transform: matrix(0.01, 0, 0, 0.01, 0, 0); transform-origin: 62.775px -3.646px; animation: 1s linear 0.396s 1 normal forwards running bounce-in-e0b91aa7-6f9a-4aec-b7e6-5af5fab8b7ae;"><path d="M216.60-17.70L216.60-17.70L213.95-17.70L213.95-0.95L217.20-0.95L217.20 0L200.95 0L200.95-0.95L204.20-0.95L204.20-34.05L200.95-34.05L200.95-35L216.05-35L216.05-35Q222.55-35 225.28-34.33L225.28-34.33L225.28-34.33Q228.00-33.65 229.10-32.70L229.10-32.70L229.10-32.70Q231.50-30.75 231.50-26.50L231.50-26.50L231.50-26.50Q231.50-22.25 229.40-20.43L229.40-20.43L229.40-20.43Q227.30-18.60 223.00-18.25L223.00-18.25L223.00-18.10L223.00-18.10Q227.05-17.55 228.65-15.70L228.65-15.70L228.65-15.70Q230.25-13.85 230.25-9.50L230.25-9.50L230.25-6.85L230.25-6.85Q230.25-4.25 230.53-3.35L230.53-3.35L230.53-3.35Q230.80-2.45 231.70-2.45L231.70-2.45L231.70-2.45Q232.60-2.45 233.13-3.28L233.13-3.28L233.13-3.28Q233.65-4.10 234.10-6.75L234.10-6.75L234.95-6.65L234.95-6.65Q234.40-2.40 233.03-0.95L233.03-0.95L233.03-0.95Q231.65 0.50 227.55 0.50L227.55 0.50L227.55 0.50Q223.45 0.50 221.73-1.43L221.73-1.43L221.73-1.43Q220.00-3.35 220.00-8.65L220.00-8.65L220.00-12.30L220.00-12.30Q220.00-15.10 219.28-16.40L219.28-16.40L219.28-16.40Q218.55-17.70 216.60-17.70zM215.60-34.05L213.95-34.05L213.95-18.65L215.55-18.65L215.55-18.65Q218.40-18.65 219.78-20.40L219.78-20.40L219.78-20.40Q221.15-22.15 221.15-26.10L221.15-26.10L221.15-27.55L221.15-27.55Q221.15-31.50 219.83-32.77L219.83-32.77L219.83-32.77Q218.50-34.05 215.60-34.05L215.60-34.05" fill="#3be8b0" stroke="none" stroke-width="none" transform="translate(-155.17501831054688,13.60400115966797)" style="fill: rgb(26, 175, 208);"></path></g><g class="path" style="transform: matrix(0.01, 0, 0, 0.01, 0, 0); transform-origin: 89.7px -3.896px; animation: 1s linear 0.462s 1 normal forwards running bounce-in-e0b91aa7-6f9a-4aec-b7e6-5af5fab8b7ae;"><path d="M237.25-34.05L237.25-35L252.50-35L252.50-34.05L249.75-34.05L249.75-0.95L252.50-0.95L252.50 0L237.25 0L237.25-0.95L240.00-0.95L240.00-34.05L237.25-34.05" fill="#3be8b0" stroke="none" stroke-width="none" transform="translate(-155.17501831054688,13.60400115966797)" style="fill: rgb(106, 103, 206);"></path></g><g class="path" style="transform: matrix(0.01, 0, 0, 0.01, 0, 0); transform-origin: 113.55px -3.896px; animation: 1s linear 0.528s 1 normal forwards running bounce-in-e0b91aa7-6f9a-4aec-b7e6-5af5fab8b7ae;"><path d="M254.80-33.90L254.80-35L280.80-35L281.30-25.10L280.40-25.10L280.40-25.10Q278.30-30.15 276-32.02L276-32.02L276-32.02Q273.70-33.90 269.25-33.90L269.25-33.90L267.50-33.90L267.50-18.45L269.20-18.45L269.20-18.45Q271.55-18.45 273.15-20.23L273.15-20.23L273.15-20.23Q274.75-22 275.40-25L275.40-25L276.15-25L276.15-10.20L275.30-10.20L275.30-10.20Q274.40-13.95 272.88-15.55L272.88-15.55L272.88-15.55Q271.35-17.15 268.70-17.15L268.70-17.15L267.50-17.15L267.50-1.10L269.40-1.10L269.40-1.10Q274-1.10 277.23-3.85L277.23-3.85L277.23-3.85Q280.45-6.60 281.65-10.90L281.65-10.90L282.65-10.90L282.25 0L254.80 0L254.80-1.10L257.75-1.10L257.75-33.90L254.80-33.90" fill="#3be8b0" stroke="none" stroke-width="none" transform="translate(-155.17501831054688,13.60400115966797)" style="fill: rgb(255, 185, 0);"></path></g><g class="path" style="transform: matrix(0.01, 0, 0, 0.01, 0, 0); transform-origin: 144.525px -3.921px; animation: 1s linear 0.594s 1 normal forwards running bounce-in-e0b91aa7-6f9a-4aec-b7e6-5af5fab8b7ae;"><path d="M300.70-0.55L300.70-0.55L300.70-0.55Q303.20-0.55 305.13-1.90L305.13-1.90L305.13-1.90Q307.05-3.25 307.05-5.98L307.05-5.98L307.05-5.98Q307.05-8.70 304.98-10.15L304.98-10.15L304.98-10.15Q302.90-11.60 299.08-12.68L299.08-12.68L299.08-12.68Q295.25-13.75 293.53-14.55L293.53-14.55L293.53-14.55Q291.80-15.35 290.25-16.65L290.25-16.65L290.25-16.65Q287.15-19.25 287.15-24.70L287.15-24.70L287.15-24.70Q287.15-29.15 290.33-32.35L290.33-32.35L290.33-32.35Q293.50-35.55 299.00-35.55L299.00-35.55L299.00-35.55Q301.65-35.55 304.53-34.77L304.53-34.77L304.53-34.77Q307.40-34 308.10-34L308.10-34L308.10-34Q308.80-34 309.35-35L309.35-35L309.90-35L310.25-24.90L309.45-24.90L309.45-24.90Q307.05-29.25 304.43-31.88L304.43-31.88L304.43-31.88Q301.80-34.50 298.73-34.50L298.73-34.50L298.73-34.50Q295.65-34.50 293.95-33.08L293.95-33.08L293.95-33.08Q292.25-31.65 292.25-29.28L292.25-29.28L292.25-29.28Q292.25-26.90 294.28-25.63L294.28-25.63L294.28-25.63Q296.30-24.35 299.25-23.55L299.25-23.55L299.25-23.55Q302.20-22.75 303.13-22.45L303.13-22.45L303.13-22.45Q304.05-22.15 305.43-21.63L305.43-21.63L305.43-21.63Q306.80-21.10 307.68-20.53L307.68-20.53L307.68-20.53Q308.55-19.95 309.53-19.07L309.53-19.07L309.53-19.07Q310.50-18.20 311.05-17.15L311.05-17.15L311.05-17.15Q312.40-14.75 312.40-11.45L312.40-11.45L312.40-11.45Q312.40-6.05 309.03-2.78L309.03-2.78L309.03-2.78Q305.65 0.50 300.15 0.50L300.15 0.50L300.15 0.50Q297.30 0.50 293.63-0.25L293.63-0.25L293.63-0.25Q289.95-1 289.55-1L289.55-1L289.55-1Q288.85-1 288.20 0.50L288.20 0.50L287.50 0.50L287.00-11.40L287.85-11.40L287.85-11.40Q290.05-7.05 293.48-3.80L293.48-3.80L293.48-3.80Q296.90-0.55 300.70-0.55" fill="#3be8b0" stroke="none" stroke-width="none" transform="translate(-155.17501831054688,13.60400115966797)" style="fill: rgb(252, 99, 107);"></path></g></g>
</g>
</g>
<style id="bounce-in-e0b91aa7-6f9a-4aec-b7e6-5af5fab8b7ae" data-anikit="">@keyframes bounce-in-e0b91aa7-6f9a-4aec-b7e6-5af5fab8b7ae
{
  0% {
    animation-timing-function: cubic-bezier(0.0383,0.3388,0.0421,0.6652);
    transform: matrix(0.01,0,0,0.01,0,0);
    opacity: 1;
  }
  4.7% {
    animation-timing-function: cubic-bezier(0.3296,0.3336,0.5772,0.6672);
    transform: matrix(0.556,0,0,0.556,0,0);
    opacity: 1;
  }
  8.4% {
    animation-timing-function: cubic-bezier(0.0781,0.1617,0.0874,0.9301);
    transform: matrix(0.979,0,0,0.979,0,0);
    opacity: 1;
  }
  12.4% {
    animation-timing-function: cubic-bezier(0.8341,0.1496,0.8634,0.7673);
    transform: matrix(1.153,0,0,1.153,0,0);
    opacity: 1;
  }
  16.3% {
    animation-timing-function: cubic-bezier(0.3264,0.3332,0.5758,0.6695);
    transform: matrix(1.008,0,0,1.008,0,0);
    opacity: 1;
  }
  21.2% {
    animation-timing-function: cubic-bezier(0.0921,0.1883,0.3277,1);
    transform: matrix(0.704,0,0,0.704,0,0);
    opacity: 1;
  }
  24.5% {
    animation-timing-function: cubic-bezier(0.6905,0.0944,0.8759,0.7624);
    transform: matrix(0.626,0,0,0.626,0,0);
    opacity: 1;
  }
  27.7% {
    animation-timing-function: cubic-bezier(0.3688,0.332,0.624,0.6684);
    transform: matrix(0.704,0,0,0.704,0,0);
    opacity: 1;
  }
  32.6% {
    animation-timing-function: cubic-bezier(0.1368,0.2364,0.2451,0.9049);
    transform: matrix(0.958,0,0,0.958,0,0);
    opacity: 1;
  }
  37.4% {
    animation-timing-function: cubic-bezier(0.5936,0.0846,0.3495,1);
    transform: matrix(1.085,0,0,1.085,0,0);
    opacity: 1;
  }
  49.5% {
    animation-timing-function: cubic-bezier(0.5522,0.0981,0.3807,1);
    transform: matrix(0.802,0,0,0.802,0,0);
    opacity: 1;
  }
  62.4% {
    animation-timing-function: cubic-bezier(0.4497,0.1349,0.4911,1);
    transform: matrix(1.044,0,0,1.044,0,0);
    opacity: 1;
  }
  74.1% {
    animation-timing-function: cubic-bezier(0.429,0,0.5239,1);
    transform: matrix(0.914,0,0,0.914,0,0);
    opacity: 1;
  }
  87% {
    animation-timing-function: cubic-bezier(0.3501,0,0.6422,1);
    transform: matrix(1.013,0,0,1.013,0,0);
    opacity: 1;
  }
  95.8% {
    animation-timing-function: cubic-bezier(0.3653,0,0.6776,1);
    transform: matrix(0.992,0,0,0.992,0,0);
    opacity: 1;
  }
  100% {
    transform: matrix(1,0,0,1,0,0);
    opacity: 1;
  }
}</style></svg>