<?xml version="1.0" encoding="utf-8"?>
<svg xmlns="http://www.w3.org/2000/svg" style="margin: auto; background: rgba(241, 242, 243, 0); display: block; shape-rendering: auto;" width="280" height="84" preserveAspectRatio="xMidYMid">
<style type="text/css">
  text {
    text-anchor: middle; font-size: 30px; opacity: 0;
  }
</style>
<g style="transform-origin: 140px 42px; transform: scale(2.30769);">
<g transform="translate(140,42)">
  <g transform="translate(0,0)"><g class="path" style="transform: rotate(0deg); transform-origin: -52.455px -0.945892px; animation: 1s linear -0.612857s infinite normal forwards running spin-1bc83cf9-7401-471a-b381-b795ffd2a47c;"><path d="M9.90-4.58L9.90-4.58L9.90-4.58Q9.90-3.92 9.72-3.32L9.72-3.32L9.72-3.32Q9.54-2.72 9.22-2.21L9.22-2.21L9.22-2.21Q8.90-1.70 8.46-1.29L8.46-1.29L8.46-1.29Q8.01-0.88 7.47-0.60L7.47-0.60L7.47-0.60Q6.94-0.31 6.33-0.16L6.33-0.16L6.33-0.16Q5.71 0 5.07 0L5.07 0L1.03 0L1.03-9.14L5.07-9.14L5.07-9.14Q5.71-9.14 6.32-8.99L6.32-8.99L6.32-8.99Q6.93-8.84 7.47-8.55L7.47-8.55L7.47-8.55Q8.00-8.27 8.45-7.86L8.45-7.86L8.45-7.86Q8.90-7.46 9.22-6.95L9.22-6.95L9.22-6.95Q9.54-6.45 9.72-5.85L9.72-5.85L9.72-5.85Q9.90-5.25 9.90-4.58zM7.34-4.58L7.34-4.58L7.34-4.58Q7.34-5.33 7.16-6.00L7.16-6.00L7.16-6.00Q6.98-6.67 6.60-7.17L6.60-7.17L6.60-7.17Q6.21-7.68 5.63-7.98L5.63-7.98L5.63-7.98Q5.04-8.28 4.22-8.28L4.22-8.28L3.55-8.28L3.55-0.89L4.22-0.89L4.22-0.89Q5.03-0.89 5.61-1.19L5.61-1.19L5.61-1.19Q6.20-1.49 6.59-2.00L6.59-2.00L6.59-2.00Q6.97-2.51 7.15-3.18L7.15-3.18L7.15-3.18Q7.34-3.85 7.34-4.58" fill="#df1317" stroke="none" stroke-width="none" transform="translate(-57.91998291015625,3.624108189174101)" style="fill: rgb(223, 19, 23);"></path></g><g class="path" style="transform: rotate(0deg); transform-origin: -45.22px -0.945892px; animation: 1s linear -0.565714s infinite normal forwards running spin-1bc83cf9-7401-471a-b381-b795ffd2a47c;"><path d="M13.96-9.14L13.96 0L11.44 0L11.44-9.14L13.96-9.14" fill="#df1317" stroke="none" stroke-width="none" transform="translate(-57.91998291015625,3.624108189174101)" style="fill: rgb(248, 13, 232);"></path></g><g class="path" style="transform: rotate(0deg); transform-origin: -37.995px -0.965891px; animation: 1s linear -0.518571s infinite normal forwards running spin-1bc83cf9-7401-471a-b381-b795ffd2a47c;"><path d="M24.34-6.87L24.34-6.87L23.25-6.42L23.25-6.42Q23.12-6.83 22.91-7.17L22.91-7.17L22.91-7.17Q22.70-7.52 22.40-7.76L22.40-7.76L22.40-7.76Q22.11-8.00 21.73-8.14L21.73-8.14L21.73-8.14Q21.36-8.28 20.92-8.28L20.92-8.28L20.92-8.28Q20.44-8.28 20.04-8.12L20.04-8.12L20.04-8.12Q19.65-7.96 19.33-7.69L19.33-7.69L19.33-7.69Q19.02-7.42 18.78-7.06L18.78-7.06L18.78-7.06Q18.55-6.70 18.39-6.29L18.39-6.29L18.39-6.29Q18.24-5.88 18.16-5.44L18.16-5.44L18.16-5.44Q18.08-5.00 18.08-4.58L18.08-4.58L18.08-4.58Q18.08-3.92 18.23-3.26L18.23-3.26L18.23-3.26Q18.39-2.60 18.73-2.07L18.73-2.07L18.73-2.07Q19.07-1.54 19.61-1.22L19.61-1.22L19.61-1.22Q20.15-0.89 20.92-0.89L20.92-0.89L20.92-0.89Q21.33-0.89 21.57-1.08L21.57-1.08L21.57-1.08Q21.80-1.26 21.80-1.73L21.80-1.73L21.80-4.54L24.32-4.54L24.32 0L23.59 0L23.15-0.72L23.15-0.72Q22.54-0.25 21.81-0.03L21.81-0.03L21.81-0.03Q21.07 0.18 20.31 0.18L20.31 0.18L20.31 0.18Q19.64 0.18 19.02 0.02L19.02 0.02L19.02 0.02Q18.40-0.15 17.87-0.45L17.87-0.45L17.87-0.45Q17.34-0.76 16.90-1.19L16.90-1.19L16.90-1.19Q16.47-1.62 16.16-2.15L16.16-2.15L16.16-2.15Q15.85-2.67 15.68-3.29L15.68-3.29L15.68-3.29Q15.51-3.91 15.51-4.58L15.51-4.58L15.51-4.58Q15.51-5.26 15.68-5.87L15.68-5.87L15.68-5.87Q15.85-6.49 16.16-7.02L16.16-7.02L16.16-7.02Q16.47-7.55 16.90-7.99L16.90-7.99L16.90-7.99Q17.34-8.42 17.87-8.72L17.87-8.72L17.87-8.72Q18.40-9.03 19.02-9.19L19.02-9.19L19.02-9.19Q19.64-9.36 20.31-9.36L20.31-9.36L20.31-9.36Q20.96-9.36 21.58-9.20L21.58-9.20L21.58-9.20Q22.20-9.05 22.73-8.74L22.73-8.74L22.73-8.74Q23.26-8.44 23.68-7.97L23.68-7.97L23.68-7.97Q24.10-7.50 24.34-6.87" fill="#df1317" stroke="none" stroke-width="none" transform="translate(-57.91998291015625,3.624108189174101)" style="fill: rgb(224, 131, 18);"></path></g><g class="path" style="transform: rotate(0deg); transform-origin: -30.55px -0.945892px; animation: 1s linear -0.471429s infinite normal forwards running spin-1bc83cf9-7401-471a-b381-b795ffd2a47c;"><path d="M28.63-9.14L28.63 0L26.11 0L26.11-9.14L28.63-9.14" fill="#df1317" stroke="none" stroke-width="none" transform="translate(-57.91998291015625,3.624108189174101)" style="fill: rgb(0, 255, 255);"></path></g><g class="path" style="transform: rotate(0deg); transform-origin: -24.255px -0.945892px; animation: 1s linear -0.424286s infinite normal forwards running spin-1bc83cf9-7401-471a-b381-b795ffd2a47c;"><path d="M34.92-7.97L34.92 0L32.40 0L32.40-7.97L29.92-7.97L29.92-9.14L37.41-9.14L37.41-7.97L34.92-7.97" fill="#df1317" stroke="none" stroke-width="none" transform="translate(-57.91998291015625,3.624108189174101)" style="fill: rgb(77, 0, 255);"></path></g><g class="path" style="transform: rotate(0deg); transform-origin: -15.5046px -0.0758915px; animation: 1s linear -0.377143s infinite normal forwards running spin-1bc83cf9-7401-471a-b381-b795ffd2a47c;"><path d="M46.82-4.37L46.82-4.37L46.82-4.25L46.82-4.25Q46.81-3.72 46.71-3.15L46.71-3.15L46.71-3.15Q46.61-2.58 46.43-2.01L46.43-2.01L46.43-2.01Q46.26-1.43 46.01-0.88L46.01-0.88L46.01-0.88Q45.76-0.32 45.45 0.19L45.45 0.19L45.45 0.19Q45.14 0.70 44.79 1.15L44.79 1.15L44.79 1.15Q44.43 1.60 44.04 1.94L44.04 1.94L43.09 1.40L43.09 1.40Q43.32 1.02 43.50 0.58L43.50 0.58L43.50 0.58Q43.68 0.14 43.82-0.34L43.82-0.34L43.82-0.34Q43.97-0.83 44.07-1.33L44.07-1.33L44.07-1.33Q44.18-1.84 44.25-2.34L44.25-2.34L44.25-2.34Q44.32-2.84 44.35-3.33L44.35-3.33L44.35-3.33Q44.39-3.81 44.39-4.25L44.39-4.25L44.39-4.25Q44.39-4.60 44.39-5.03L44.39-5.03L44.39-5.03Q44.38-5.47 44.34-5.92L44.34-5.92L44.34-5.92Q44.29-6.37 44.18-6.80L44.18-6.80L44.18-6.80Q44.07-7.22 43.86-7.56L43.86-7.56L43.86-7.56Q43.65-7.90 43.31-8.10L43.31-8.10L43.31-8.10Q42.98-8.30 42.48-8.30L42.48-8.30L42.48-8.30Q42.05-8.30 41.73-8.15L41.73-8.15L41.73-8.15Q41.42-8.00 41.20-7.75L41.20-7.75L41.20-7.75Q40.98-7.50 40.85-7.17L40.85-7.17L40.85-7.17Q40.72-6.84 40.65-6.48L40.65-6.48L40.65-6.48Q40.57-6.11 40.55-5.74L40.55-5.74L40.55-5.74Q40.53-5.37 40.53-5.04L40.53-5.04L40.53-3.27L43.27-3.27L43.27-2.22L40.53-2.22L40.53 0L38.01 0L38.01-4.65L38.01-4.65Q38.01-5.64 38.33-6.50L38.33-6.50L38.33-6.50Q38.64-7.36 39.23-7.99L39.23-7.99L39.23-7.99Q39.81-8.62 40.62-8.98L40.62-8.98L40.62-8.98Q41.44-9.34 42.44-9.34L42.44-9.34L42.44-9.34Q43.12-9.34 43.71-9.14L43.71-9.14L43.71-9.14Q44.31-8.95 44.80-8.61L44.80-8.61L44.80-8.61Q45.28-8.27 45.67-7.80L45.67-7.80L45.67-7.80Q46.05-7.34 46.31-6.79L46.31-6.79L46.31-6.79Q46.57-6.23 46.70-5.62L46.70-5.62L46.70-5.62Q46.83-5.00 46.82-4.37" fill="#df1317" stroke="none" stroke-width="none" transform="translate(-57.91998291015625,3.624108189174101)" style="fill: rgb(12, 125, 153);"></path></g><g class="path" style="transform: rotate(0deg); transform-origin: -6.17998px -0.945892px; animation: 1s linear -0.33s infinite normal forwards running spin-1bc83cf9-7401-471a-b381-b795ffd2a47c;"><path d="M55.02-1.16L55.02 0L48.46 0L48.46-9.14L50.98-9.14L50.98-1.16L55.02-1.16" fill="#df1317" stroke="none" stroke-width="none" transform="translate(-57.91998291015625,3.624108189174101)" style="fill: rgb(10, 105, 170);"></path></g><g class="path" style="transform: rotate(0deg); transform-origin: 5.25002px -0.945892px; animation: 1s linear -0.282857s infinite normal forwards running spin-1bc83cf9-7401-471a-b381-b795ffd2a47c;"><path d="M66.45-1.17L66.45 0L59.89 0L59.89-9.14L66.45-9.14L66.45-7.97L62.41-7.97L62.41-5.15L65.53-5.15L65.53-3.99L62.41-3.99L62.41-1.17L66.45-1.17" fill="#df1317" stroke="none" stroke-width="none" transform="translate(-57.91998291015625,3.624108189174101)" style="fill: rgb(25, 70, 69);"></path></g><g class="path" style="transform: rotate(0deg); transform-origin: 13.38px -0.945892px; animation: 1s linear -0.235714s infinite normal forwards running spin-1bc83cf9-7401-471a-b381-b795ffd2a47c;"><path d="M70.54-3.99L70.54 0L68.02 0L68.02-9.14L74.58-9.14L74.58-7.97L70.54-7.97L70.54-5.15L73.66-5.15L73.66-3.99L70.54-3.99" fill="#df1317" stroke="none" stroke-width="none" transform="translate(-57.91998291015625,3.624108189174101)" style="fill: rgb(223, 19, 23);"></path></g><g class="path" style="transform: rotate(0deg); transform-origin: 21.255px -0.945892px; animation: 1s linear -0.188571s infinite normal forwards running spin-1bc83cf9-7401-471a-b381-b795ffd2a47c;"><path d="M78.41-3.99L78.41 0L75.89 0L75.89-9.14L82.46-9.14L82.46-7.97L78.41-7.97L78.41-5.15L81.54-5.15L81.54-3.99L78.41-3.99" fill="#df1317" stroke="none" stroke-width="none" transform="translate(-57.91998291015625,3.624108189174101)" style="fill: rgb(248, 13, 232);"></path></g><g class="path" style="transform: rotate(0deg); transform-origin: 29.13px -0.945892px; animation: 1s linear -0.141429s infinite normal forwards running spin-1bc83cf9-7401-471a-b381-b795ffd2a47c;"><path d="M90.33-1.17L90.33 0L83.77 0L83.77-9.14L90.33-9.14L90.33-7.97L86.29-7.97L86.29-5.15L89.41-5.15L89.41-3.99L86.29-3.99L86.29-1.17L90.33-1.17" fill="#df1317" stroke="none" stroke-width="none" transform="translate(-57.91998291015625,3.624108189174101)" style="fill: rgb(224, 131, 18);"></path></g><g class="path" style="transform: rotate(0deg); transform-origin: 37.65px -0.965891px; animation: 1s linear -0.0942857s infinite normal forwards running spin-1bc83cf9-7401-471a-b381-b795ffd2a47c;"><path d="M99.98-6.87L99.98-6.87L98.90-6.42L98.90-6.42Q98.77-6.83 98.56-7.17L98.56-7.17L98.56-7.17Q98.34-7.52 98.05-7.76L98.05-7.76L98.05-7.76Q97.75-8.00 97.38-8.14L97.38-8.14L97.38-8.14Q97.00-8.28 96.56-8.28L96.56-8.28L96.56-8.28Q96.08-8.28 95.69-8.12L95.69-8.12L95.69-8.12Q95.29-7.97 94.98-7.69L94.98-7.69L94.98-7.69Q94.66-7.42 94.43-7.06L94.43-7.06L94.43-7.06Q94.19-6.70 94.03-6.29L94.03-6.29L94.03-6.29Q93.88-5.88 93.80-5.44L93.80-5.44L93.80-5.44Q93.72-5.00 93.72-4.58L93.72-4.58L93.72-4.58Q93.72-3.92 93.88-3.26L93.88-3.26L93.88-3.26Q94.03-2.60 94.37-2.07L94.37-2.07L94.37-2.07Q94.71-1.54 95.25-1.22L95.25-1.22L95.25-1.22Q95.79-0.89 96.56-0.89L96.56-0.89L96.56-0.89Q96.97-0.89 97.33-1.03L97.33-1.03L97.33-1.03Q97.69-1.16 97.99-1.40L97.99-1.40L97.99-1.40Q98.28-1.64 98.50-1.96L98.50-1.96L98.50-1.96Q98.73-2.29 98.86-2.66L98.86-2.66L99.96-2.22L99.96-2.22Q99.72-1.62 99.30-1.16L99.30-1.16L99.30-1.16Q98.88-0.71 98.34-0.41L98.34-0.41L98.34-0.41Q97.80-0.11 97.19 0.03L97.19 0.03L97.19 0.03Q96.58 0.18 95.96 0.18L95.96 0.18L95.96 0.18Q95.28 0.18 94.67 0.02L94.67 0.02L94.67 0.02Q94.05-0.15 93.51-0.45L93.51-0.45L93.51-0.45Q92.98-0.76 92.55-1.19L92.55-1.19L92.55-1.19Q92.11-1.62 91.80-2.15L91.80-2.15L91.80-2.15Q91.50-2.67 91.33-3.29L91.33-3.29L91.33-3.29Q91.16-3.91 91.16-4.58L91.16-4.58L91.16-4.58Q91.16-5.26 91.33-5.87L91.33-5.87L91.33-5.87Q91.50-6.49 91.80-7.02L91.80-7.02L91.80-7.02Q92.11-7.55 92.55-7.99L92.55-7.99L92.55-7.99Q92.98-8.42 93.51-8.72L93.51-8.72L93.51-8.72Q94.05-9.03 94.67-9.19L94.67-9.19L94.67-9.19Q95.28-9.36 95.96-9.36L95.96-9.36L95.96-9.36Q96.60-9.36 97.22-9.20L97.22-9.20L97.22-9.20Q97.84-9.05 98.38-8.74L98.38-8.74L98.38-8.74Q98.91-8.44 99.32-7.97L99.32-7.97L99.32-7.97Q99.74-7.50 99.98-6.87" fill="#df1317" stroke="none" stroke-width="none" transform="translate(-57.91998291015625,3.624108189174101)" style="fill: rgb(0, 255, 255);"></path></g><g class="path" style="transform: rotate(0deg); transform-origin: 46.5px -0.945892px; animation: 1s linear -0.0471429s infinite normal forwards running spin-1bc83cf9-7401-471a-b381-b795ffd2a47c;"><path d="M105.68-7.97L105.68 0L103.16 0L103.16-7.97L100.67-7.97L100.67-9.14L108.17-9.14L108.17-7.97L105.68-7.97" fill="#df1317" stroke="none" stroke-width="none" transform="translate(-57.91998291015625,3.624108189174101)" style="fill: rgb(77, 0, 255);"></path></g><g class="path" style="transform: rotate(0deg); transform-origin: 54.93px -0.965891px; animation: 1s linear 0s infinite normal forwards running spin-1bc83cf9-7401-471a-b381-b795ffd2a47c;"><path d="M116.87-2.79L116.87-2.79L116.87-2.79Q116.87-2.20 116.72-1.75L116.72-1.75L116.72-1.75Q116.57-1.30 116.30-0.97L116.30-0.97L116.30-0.97Q116.03-0.64 115.66-0.42L115.66-0.42L115.66-0.42Q115.29-0.20 114.86-0.06L114.86-0.06L114.86-0.06Q114.42 0.07 113.94 0.13L113.94 0.13L113.94 0.13Q113.45 0.18 112.95 0.18L112.95 0.18L112.95 0.18Q112.29 0.18 111.73 0.09L111.73 0.09L111.73 0.09Q111.17-0.01 110.68-0.23L110.68-0.23L110.68-0.23Q110.19-0.44 109.74-0.77L109.74-0.77L109.74-0.77Q109.28-1.11 108.83-1.59L108.83-1.59L110.13-2.91L110.13-2.91Q110.30-2.47 110.61-2.10L110.61-2.10L110.61-2.10Q110.93-1.73 111.30-1.46L111.30-1.46L111.30-1.46Q111.67-1.19 112.07-1.04L112.07-1.04L112.07-1.04Q112.47-0.89 112.82-0.89L112.82-0.89L112.82-0.89Q113.24-0.89 113.61-0.95L113.61-0.95L113.61-0.95Q113.98-1.01 114.25-1.15L114.25-1.15L114.25-1.15Q114.52-1.29 114.68-1.52L114.68-1.52L114.68-1.52Q114.84-1.75 114.84-2.10L114.84-2.10L114.84-2.10Q114.84-2.37 114.71-2.56L114.71-2.56L114.71-2.56Q114.59-2.75 114.40-2.89L114.40-2.89L114.40-2.89Q114.21-3.02 113.96-3.12L113.96-3.12L113.96-3.12Q113.71-3.21 113.45-3.28L113.45-3.28L113.45-3.28Q113.20-3.35 112.95-3.40L112.95-3.40L112.95-3.40Q112.70-3.45 112.51-3.51L112.51-3.51L112.51-3.51Q112.14-3.62 111.73-3.74L111.73-3.74L111.73-3.74Q111.33-3.87 110.93-4.02L110.93-4.02L110.93-4.02Q110.54-4.18 110.19-4.39L110.19-4.39L110.19-4.39Q109.83-4.60 109.57-4.88L109.57-4.88L109.57-4.88Q109.30-5.16 109.14-5.53L109.14-5.53L109.14-5.53Q108.98-5.90 108.98-6.39L108.98-6.39L108.98-6.39Q108.98-6.96 109.13-7.41L109.13-7.41L109.13-7.41Q109.27-7.86 109.53-8.19L109.53-8.19L109.53-8.19Q109.79-8.52 110.14-8.74L110.14-8.74L110.14-8.74Q110.50-8.97 110.93-9.11L110.93-9.11L110.93-9.11Q111.35-9.24 111.83-9.30L111.83-9.30L111.83-9.30Q112.31-9.36 112.81-9.36L112.81-9.36L112.81-9.36Q113.50-9.36 114.06-9.24L114.06-9.24L114.06-9.24Q114.62-9.11 115.10-8.87L115.10-8.87L115.10-8.87Q115.57-8.64 115.97-8.31L115.97-8.31L115.97-8.31Q116.37-7.99 116.71-7.59L116.71-7.59L115.42-6.27L115.42-6.27Q115.27-6.73 115.00-7.10L115.00-7.10L115.00-7.10Q114.73-7.46 114.40-7.73L114.40-7.73L114.40-7.73Q114.07-7.99 113.71-8.13L113.71-8.13L113.71-8.13Q113.34-8.28 113.01-8.28L113.01-8.28L113.01-8.28Q112.57-8.28 112.20-8.22L112.20-8.22L112.20-8.22Q111.83-8.16 111.57-8.02L111.57-8.02L111.57-8.02Q111.31-7.88 111.16-7.65L111.16-7.65L111.16-7.65Q111.01-7.42 111.01-7.08L111.01-7.08L111.01-7.08Q111.01-6.80 111.12-6.61L111.12-6.61L111.12-6.61Q111.23-6.42 111.41-6.29L111.41-6.29L111.41-6.29Q111.59-6.16 111.82-6.07L111.82-6.07L111.82-6.07Q112.05-5.99 112.29-5.92L112.29-5.92L112.29-5.92Q112.54-5.86 112.78-5.81L112.78-5.81L112.78-5.81Q113.01-5.76 113.21-5.71L113.21-5.71L113.21-5.71Q113.59-5.60 114.01-5.48L114.01-5.48L114.01-5.48Q114.43-5.36 114.84-5.20L114.84-5.20L114.84-5.20Q115.24-5.03 115.61-4.82L115.61-4.82L115.61-4.82Q115.98-4.61 116.26-4.33L116.26-4.33L116.26-4.33Q116.54-4.04 116.70-3.66L116.70-3.66L116.70-3.66Q116.87-3.28 116.87-2.79" fill="#df1317" stroke="none" stroke-width="none" transform="translate(-57.91998291015625,3.624108189174101)" style="fill: rgb(12, 125, 153);"></path></g></g>
</g>
</g>
<style id="spin-1bc83cf9-7401-471a-b381-b795ffd2a47c" data-anikit="">@keyframes spin-1bc83cf9-7401-471a-b381-b795ffd2a47c
{
  0% {
    animation-timing-function: cubic-bezier(0.5856,0.0703,0.4143,0.9297);
    transform: rotate(0deg);
  }
  100% {
    transform: rotate(360deg);
  }
}</style></svg>